<svg xmlns="http://www.w3.org/2000/svg" width="47.36" height="50.46" viewBox="0 0 47.36 50.46">
  <defs>
    <style>
      .a {
        fill: #4088c8;
      }

      .b {
        fill: #498bca;
      }

      .c {
        fill: #3f88c8;
      }

      .d {
        fill: #4289c8;
      }

      .e {
        fill: #4389c8;
      }

      .f {
        fill: #538fcc;
      }
    </style>
  </defs>
  <g>
    <path class="a" d="M40.4,6.66c-4.76-.35-9.52-.67-14.28-1-3.8-.27-7.61-.5-11.41-.83-2.39-.21-2.83.08-3,2.44S11.47,9.75,9,9.75s-2.7.32-2.71,2.66v40.1c0,2.41.19,2.6,2.58,2.6,5.37,0,10.75-.21,16.11.08,2.88.16,5.17-.16,6.77-2.75a1.8,1.8,0,0,1,1.79-.74c1.38.1,2.77.21,4.16.26s2-.55,2.05-1.91c.22-3.29.45-6.58.65-9.87Q41.41,24.6,42.36,9C42.46,7.38,42,6.78,40.4,6.66Zm-10.85,45c0-1,0-2.34,0-3.71,0-.64.45-.74,1-.74h3.58l.27.35ZM41,9.31q-.37,6.12-.76,12.25-.45,7.2-.91,14.39c-.28,4.4-.59,8.79-.85,13.19-.07,1.15-.57,1.55-1.68,1.38-.89-.14-1.8-.19-2.87-.29a3,3,0,0,1,.4-.5C36.66,48,37.05,45.62,37,42.82c-.15-10.26-.08-20.52-.09-30.78,0-1.83-.42-2.27-2.23-2.28-2,0-4,0-6,0-.51,0-1.11-.09-1.13.69s.6.7,1.1.7h5.37c1.47,0,1.63.16,1.63,1.65,0,6.25-.11,12.49-.11,18.73,0,4.21.08,8.42.11,12.64,0,1.6,0,1.62-1.58,1.63-1.23,0-2.46,0-3.69,0-1.71,0-2.2.51-2.24,2.22,0,1.55-.05,3.11,0,4.65,0,.79-.23,1-1,1q-9.18,0-18.37,0c-.93,0-1.26-.38-1.26-1.29q0-20,0-40c0-1.09.55-1.33,1.5-1.32,4.74,0,9.47,0,14.21,0H24c.51,0,.92-.23.9-.72s-.44-.7-.94-.69H21.65c-2.58,0-5.17,0-7.75,0-.72,0-1-.2-.93-.95.24-2.58-.43-2.73,2.7-2.49C23.79,7,31.92,7.48,40.05,8,41,8.08,41,8.63,41,9.31Z" transform="translate(-6.32 -4.77)"/>
    <path class="a" d="M53.67,30.53c0-1.06-.37-1.79-1.45-2a1,1,0,0,1-.9-.93,25.82,25.82,0,0,1-1.06-4.11A1.75,1.75,0,0,0,48.41,22c-1-.07-1.94.25-2.16,1.29a27.73,27.73,0,0,1-1.12,4.18c-.22.57-.3,1-.88,1.39-1.12.69-1.28,2.69-.2,3.25s1.05,1.23,1,2.12c0,1.23,0,2.47,0,3.7v4.17c0,.49.18,1,.67,1s.7-.45.71-.93c0-.2,0-.4,0-.6,0-2.58,0-5.17,0-7.75,0-.86.27-1.27,1.17-1.19a7.82,7.82,0,0,0,1.18,0c.86,0,1.13.35,1.1,1.22-.06,2.38,0,4.77,0,7.15s0,5,0,7.52a1.77,1.77,0,0,1-1.62,1.87,1.83,1.83,0,0,1-1.79-1.85A3.35,3.35,0,0,0,46.33,47c-.12-.23-.26-.54-.6-.49a.65.65,0,0,0-.54.56,2.56,2.56,0,0,0,0,.83,14.82,14.82,0,0,0,2.1,6.39c.66,1.15,1.26,1.2,1.82,0,1.23-2.57,2.5-5.12,2.21-8.12-.12-1.22,0-2.47,0-3.7,0-.72.19-1.08.91-1.21a1.7,1.7,0,0,0,1.51-1.94C53.64,36.4,53.65,33.47,53.67,30.53ZM48.3,53.33a3.13,3.13,0,0,1-.71-1.49c.38-.18.94-.26,1.09,0C49,52.28,48.42,52.71,48.3,53.33Zm-.92-28.8c.06-.59.21-1.18.92-1.13s.84.63.79,1.21,0,.95-.65.85S47.29,25.35,47.38,24.53ZM47,26.94c.67-.06,1.34,0,2-.06s.9.23.88.84-.38.69-.88.65c-.27,0-.55,0-.83,0s-.71,0-1.06,0-.69-.06-.7-.56S46.55,27,47,26.94Zm5.37,12c0,.45,0,.95-.62.92s-.52-.5-.52-.91c0-2.23,0-4.45,0-6.68,0-.88-.3-1.2-1.18-1.18-1.43.05-2.86,0-4.29,0-.45,0-1.06.07-1-.66s.56-.6,1-.6c1.83,0,3.66,0,5.49-.06.79,0,1.16.37,1.15,1.17,0,1.35,0,2.7,0,4.05Z" transform="translate(-6.32 -4.77)"/>
    <path class="b" d="M21.68,22.92c2.9,0,5.8,0,8.71,0,.51,0,1.23-.17,1.29.66s-.71.84-1.27.84q-8.82,0-17.66,0c-.56,0-1.23,0-1.25-.76s.7-.75,1.23-.75C15.71,22.91,18.69,22.92,21.68,22.92Z" transform="translate(-6.32 -4.77)"/>
    <path class="a" d="M13.48,47.75c-.3.85-.49,1.5-.75,2.11a.85.85,0,0,1-1,.6c-.43-.16-.38-.66-.27-1.05A23.42,23.42,0,0,0,12.69,44c0-.4.26-.89.64-.92s.66.48.77.89c.25.92.4,1.86.68,2.77.34,1.13.87,1.23,1.67.37.56-.6,1-.69,1.45.13a1.46,1.46,0,0,0,1.35.79,15.23,15.23,0,0,0,3.57,0,5.65,5.65,0,0,1,1.3,0c.4.05.81.15.82.69a.7.7,0,0,1-.78.73c-2.13,0-4.29.35-6.38-.34-.41-.13-.8-.31-1.24,0-1,.74-1.76.33-2.38-.6A9.36,9.36,0,0,0,13.48,47.75Z" transform="translate(-6.32 -4.77)"/>
    <path class="c" d="M21.51,28.1h8.57a4.3,4.3,0,0,1,1,0,.71.71,0,0,1,.58.67c0,.36-.28.56-.6.64a4.21,4.21,0,0,1-.94.07H13a3.84,3.84,0,0,1-.59,0c-.41,0-.86-.14-.85-.64a.75.75,0,0,1,.86-.77h9.05Z" transform="translate(-6.32 -4.77)"/>
    <path class="d" d="M21.64,33.32h8.59c.59,0,1.32,0,1.35.66s-.74.78-1.36.78H12.91a2.09,2.09,0,0,1-.71,0,.85.85,0,0,1-.65-.77.71.71,0,0,1,.78-.61h9.31Z" transform="translate(-6.32 -4.77)"/>
    <path class="d" d="M21.51,19.24H16c-.58,0-1.21,0-1.17-.81s.68-.63,1.18-.63H27.11c.53,0,1.23-.15,1.22.71s-.69.72-1.23.72Z" transform="translate(-6.32 -4.77)"/>
    <path class="e" d="M20.24,41.6c.45-1.41.82-2.5,1.14-3.6.15-.49.45-.67.89-.55.62.17.19.58.1.85-.43,1.32-.9,2.62-1.34,3.94-.14.4-.27.7-.8.69a.76.76,0,0,1-.83-.64c-.42-1.36-.9-2.71-1.31-4.08-.06-.21-.45-.62.1-.76s.78-.05.93.47C19.45,39.05,19.8,40.17,20.24,41.6Z" transform="translate(-6.32 -4.77)"/>
    <path class="f" d="M17.29,40.27v2c0,.36-.07.61-.51.63s-.62-.21-.61-.65c0-1.43,0-2.85,0-4.28,0-.4.16-.58.57-.57s.56.2.55.58Z" transform="translate(-6.32 -4.77)"/>
    <path class="e" d="M25.5,38.06a.79.79,0,0,0-.83-.65c-.55,0-.76.23-.9.72-.36,1.25-.8,2.48-1.16,3.73-.09.31-.57.76,0,1s.88-.13,1-.69.42-.77,1-.75,1,0,1.16.7.55,1,1.33.66C26.52,41.2,26,39.64,25.5,38.06ZM25,40.51a1.25,1.25,0,0,1-.69,0c-.36-.1-.17-.37-.11-.58l.44-1.37.45,1.36C25.14,40.13,25.32,40.4,25,40.51Z" transform="translate(-6.32 -4.77)"/>
  </g>
</svg>
