<svg xmlns="http://www.w3.org/2000/svg" width="52.58" height="46.7" viewBox="0 0 52.58 46.7">
  <defs>
    <style>
      .a {
        fill: none;
        stroke: #3e87c7;
        stroke-miterlimit: 10;
        stroke-width: 0.75px;
      }
    </style>
  </defs>
  <g>
    <path class="a" d="M25.67,23.45a30.35,30.35,0,0,1,11-11.13l9.07,9.11-2.89,4.29c3.77,3.37,7.6,6.73,11.33,10.19a5.73,5.73,0,0,1,1.62,2.71,3.35,3.35,0,0,1-2,3.68,3.64,3.64,0,0,1-4.33-1c-3.09-3.47-6.16-7-9.24-10.43l-1.22-1.37-4.33,2.94Z" transform="translate(-3.71 -6.65)"/>
    <path class="a" d="M14.53,26.18a11.28,11.28,0,0,1-1.86-1.31c-.89-.93-4.09-.64-4.66.51A1.8,1.8,0,0,0,9.53,28a17.37,17.37,0,0,0,1.77,0,5.68,5.68,0,0,1,5.52,4.58,5.42,5.42,0,0,1-3.45,6.14,1.39,1.39,0,0,0-1.07,1.7c.19,1.35-.66,1.49-1.68,1.44s-2.2.27-2-1.37c.09-1-.32-1.4-1.24-1.73A4.55,4.55,0,0,1,4.4,35.26c-.2-.81.06-1.39,1-1.36,1.1,0,2.27-.4,3.05,1.06.58,1.08,3.9.58,4.49-.52a1.77,1.77,0,0,0-1.59-2.61,19.12,19.12,0,0,1-3.23-.33,5.54,5.54,0,0,1-4-5A5.47,5.47,0,0,1,7.55,21c.88-.34,1.25-.75,1.12-1.67-.17-1.2.51-1.51,1.55-1.43s2.32-.35,2.17,1.39c-.09,1,.44,1.28,1.23,1.74a7.27,7.27,0,0,1,2.56,2.49C17.2,25.27,16.75,25.86,14.53,26.18Z" transform="translate(-3.71 -6.65)"/>
    <path class="a" d="M27.35,53c-4.18,0-8.37,0-12.55,0-1.15,0-1.59-.38-1.45-1.51,0-.36,0-.73,0-1.09,0-1.52.54-2.07,2-2.08h10c4.63,0,9.27,0,13.91,0,.7,0,1.84.45,2,.94a9.21,9.21,0,0,1,.09,3.32c0,.15-.77.33-1.19.34C35.9,53,31.63,53,27.35,53Z" transform="translate(-3.71 -6.65)"/>
    <path class="a" d="M16.42,45.58a3,3,0,0,1-.11-.47c0-2.94-.32-3.76,3.46-3.69,5.31.1,10.63,0,16,0,2.53,0,2.9.37,2.88,2.92,0,.37,0,.73-.05,1.21Z" transform="translate(-3.71 -6.65)"/>
    <path class="a" d="M30.4,38.21a11.47,11.47,0,0,1-2.19-1.3c-2.36-2.27-4.68-4.6-7-6.94a2.61,2.61,0,0,1-.14-3.89,2.54,2.54,0,0,1,3.77,0c2.42,2.34,4.79,4.74,7.17,7.13a2.37,2.37,0,0,1,.55,3A10.5,10.5,0,0,1,30.4,38.21Z" transform="translate(-3.71 -6.65)"/>
    <path class="a" d="M38.42,9.23c.6-.7,1.09-1.7,1.86-2a2.94,2.94,0,0,1,2.6.26c2.68,2.45,5.22,5.05,7.73,7.68a2.43,2.43,0,0,1-.19,3.46,2.43,2.43,0,0,1-3.54.17c-2.56-2.46-5.05-5-7.51-7.55A8,8,0,0,1,38.42,9.23Z" transform="translate(-3.71 -6.65)"/>
  </g>
</svg>
