<svg xmlns="http://www.w3.org/2000/svg" width="51.34" height="38.91" viewBox="0 0 51.34 38.91">
  <defs>
    <style>
      .a {
        fill: #3e87c7;
      }
    </style>
  </defs>
  <g>
    <path class="a" d="M55.67,44.63c-1.59,1.51-3.17,3-4.78,4.54a1,1,0,0,1-1.69-.66c0-.17,0-.36,0-.61h-.65c-6.08,0-12.16,0-18.23,0A17.67,17.67,0,0,1,17,42.21a17.27,17.27,0,0,1-4.69-10,17.62,17.62,0,0,1,3.16-12.6c0-.06.06-.12.12-.22H10.88c0,.21,0,.44-.08.66a1,1,0,0,1-1.64.6c-1.52-1.38-3-2.79-4.49-4.21a1,1,0,0,1,.08-1.54c1.42-1.35,2.85-2.68,4.27-4a1.05,1.05,0,0,1,1.14-.3,1.06,1.06,0,0,1,.68,1,4.54,4.54,0,0,0,0,.46H29.7A18,18,0,0,1,40.37,15.4a1.11,1.11,0,0,1,.55,1.23c-.16.71-1,.9-1.66.49a38.27,38.27,0,0,0-3.51-1.9,13.32,13.32,0,0,0-5.4-1.07c-6.72,0-13.43,0-20.15,0a7.64,7.64,0,0,1-1.35-.27l-2,1.88,2,1.87a11.81,11.81,0,0,1,1.58-.23c2.37,0,4.74,0,7.11,0,.53,0,1,.09,1.19.62a1.11,1.11,0,0,1-.34,1.27,14.89,14.89,0,0,0-4,8.53,15.51,15.51,0,0,0,7,15.49,15.29,15.29,0,0,0,9,2.59q9.72,0,19.44,0a8.19,8.19,0,0,1,1.41.27l2-1.88-2-1.88a9.29,9.29,0,0,1-1.47.24c-2.42,0-4.84,0-7.27,0A1.06,1.06,0,0,1,41.32,42a1.09,1.09,0,0,1,.32-1.22,15.71,15.71,0,0,0,4.2-11.92,15.26,15.26,0,0,0-1.11-4.8,2.09,2.09,0,0,1-.18-.57,1,1,0,0,1,.67-1.1,1,1,0,0,1,1.23.58,25.74,25.74,0,0,1,1.08,3.47,17.63,17.63,0,0,1-2.91,13.9,1.25,1.25,0,0,0-.15.25h4.69l0-.44a1,1,0,0,1,.67-1,1,1,0,0,1,1.14.29c1.16,1.1,2.34,2.19,3.5,3.3.41.39.78.81,1.17,1.22Z" transform="translate(-4.33 -10.55)"/>
    <path class="a" d="M42.64,30A12.63,12.63,0,1,1,30.06,17.37,12.61,12.61,0,0,1,42.64,30ZM30,19.38A10.62,10.62,0,1,0,40.63,30,10.66,10.66,0,0,0,30,19.38Z" transform="translate(-4.33 -10.55)"/>
    <path class="a" d="M43.23,20.48a1,1,0,0,1-1-1,1,1,0,0,1,1-1,1,1,0,0,1,1,1A1,1,0,0,1,43.23,20.48Z" transform="translate(-4.33 -10.55)"/>
    <path class="a" d="M28.92,35.14c-.63-.29-1.22-.53-1.76-.83a1,1,0,0,1-.43-1.41,1,1,0,0,1,1.43-.31A3.06,3.06,0,0,0,30,33a1.47,1.47,0,0,0,1.39-1.29c.08-.56-.24-1-.93-1.25s-1.47-.61-2.18-1a2.5,2.5,0,0,1-1.44-2.45,2.89,2.89,0,0,1,1.65-2.61c.27-.14.43-.26.44-.61a1,1,0,0,1,1-.95,1,1,0,0,1,1,.91c0,.33.18.42.47.51a8.89,8.89,0,0,1,1.42.6,1,1,0,0,1,.46,1.4,1,1,0,0,1-1.43.36,3.7,3.7,0,0,0-1.95-.52,1,1,0,0,0-1,.73c-.13.54.17.81.61,1s1.09.49,1.65.7a3.06,3.06,0,0,1,2.24,2.78,3.4,3.4,0,0,1-2.07,3.4.5.5,0,0,0-.37.5,1,1,0,0,1-1,1.09c-.59,0-1-.4-1-1.11C28.92,35.17,28.91,35.11,28.92,35.14Z" transform="translate(-4.33 -10.55)"/>
  </g>
</svg>
