<svg version="1.2" xmlns="http://www.w3.org/2000/svg" viewBox="0 0 20 8" width="20" height="8">
	<title>title_icon-svg</title>
	<defs>
		<clipPath clipPathUnits="userSpaceOnUse" id="cp1">
			<path d="m0 0h20v8h-20z"/>
		</clipPath>
	</defs>
	<style>
		.s0 { fill: #2f8adc } 
	</style>
	<g id="Clip-Path" clip-path="url(#cp1)">
		<g id="Layer">
			<path id="Layer" class="s0" d="m11.7 6.9c-3.1 0.1-3.5-6.4-5.6-2.3-0.9 1.9-3.2 2.9-4.9 1.3-0.6-0.5-1.2-1.3-1.2-2.1 0-1 1.3-1.3 1.8-0.6 0.3 0.5 0.5 0.9 0.9 1.2 1.5 1.3 1.7-3.3 4.6-3.3 1.2 0 2.4 1.1 3 2 0.3 0.3 1.1 2 1.5 1.6 0.5-0.5 0.9-1.1 1.4-1.7 0.9-1.2 2.7-1.3 3.7-0.2 0.3 0.2 0.5 0.5 0.7 0.8 0.1 0.1 0.2 0.1 0.3 0q0 0 0.1 0c0.3-0.6 0.8-1 1.5-0.6 1.3 0.9-0.2 2.7-1.4 2.9-0.8 0.1-1.6-0.3-2.2-1-0.2-0.3-0.3-0.7-0.6-0.7-0.8-0.3-1.4 2.6-3.6 2.7z"/>
		</g>
	</g>
</svg>