<svg xmlns="http://www.w3.org/2000/svg" width="47.84" height="51.51" viewBox="0 0 47.84 51.51">
  <defs>
    <style>
      .a {
        fill: none;
        stroke: #3f88c8;
        stroke-miterlimit: 10;
      }

      .b {
        fill: #4088c8;
      }

      .c {
        fill: #498bca;
      }

      .d {
        fill: #3f88c8;
      }

      .e {
        fill: #4289c8;
      }

      .f {
        fill: #4389c8;
      }
    </style>
  </defs>
  <g>
    <path class="a" d="M6.33,32.36v-20c0-2.26.36-2.59,2.65-2.59,2.51,0,2.51,0,2.7-2.43s.62-2.7,3.1-2.49c3.88.34,7.76.56,11.65.83,4.68.33,9.35.65,14,1,1.51.12,2,.73,1.9,2.28q-.9,14.34-1.82,28.67-.39,6.12-.75,12.25c-.1,1.58-.67,2.15-2.24,2.09-1.27-.05-2.53-.14-3.8-.26a2.28,2.28,0,0,0-2.18,1c-.27.35-.56.67-.83,1a3.93,3.93,0,0,1-3.53,1.62c-6.24-.37-12.48-.08-18.73-.17-1.79,0-2.14-.34-2.14-2.18C6.32,46,6.33,39.2,6.33,32.36Z" transform="translate(-5.83 -4.25)"/>
    <path class="b" d="M34.37,47.16c-1.51,1.86-3.1,3.32-4.8,5.11,0-1.68,0-3.08,0-4.48,0-.43.31-.62.72-.63Z" transform="translate(-5.83 -4.25)"/>
    <path class="c" d="M53.67,30.32a1.61,1.61,0,0,0-1.39-1.79,1.12,1.12,0,0,1-1-1,28.28,28.28,0,0,1-1.06-4.12,1.75,1.75,0,0,0-1.88-1.5c-1-.05-1.94.29-2.13,1.34a24.34,24.34,0,0,1-1.12,4.18c-.2.53-.27,1-.81,1.31a2,2,0,0,0,.09,3.5,1.2,1.2,0,0,1,.68,1.24c0,2.07,0,4.13,0,6.2,0,.84,0,1.67,0,2.51,0,.43.26.81.71.79s.59-.38.65-.75a4.33,4.33,0,0,0,0-.72c0-2.62,0-5.25,0-7.87,0-.79.25-1.2,1.1-1.13a11.3,11.3,0,0,0,1.3,0c.8,0,1.07.32,1,1.14,0,2.43,0,4.85,0,7.28h0c0,2.5,0,5,0,7.51a1.74,1.74,0,0,1-1.67,1.82,1.81,1.81,0,0,1-1.73-1.78c0-.24,0-.48,0-.72,0-.57-.08-1.28-.78-1.21s-.59.74-.54,1.28a15.43,15.43,0,0,0,2.14,6.5c.67,1.14,1.24,1.15,1.83-.06,1.25-2.56,2.47-5.13,2.18-8.12-.12-1.22,0-2.47,0-3.7,0-.68.17-1,.85-1.14a1.65,1.65,0,0,0,1.56-1.77C53.65,36.43,53.66,33.38,53.67,30.32ZM48.38,53.4a3.32,3.32,0,0,1-.79-1.61c.39-.16.94-.25,1.1,0C49,52.26,48.36,52.66,48.38,53.4Zm-1-28.91c.06-.59.22-1.18.93-1.12s.83.63.79,1.25c0,.45,0,.9-.66.81S47.29,25.31,47.38,24.49Zm-.18,2.39c.63,0,1.26,0,1.89,0a.73.73,0,0,1,.84.87c0,.61-.45.64-.92.62-.27,0-.55,0-.82,0h-.95c-.43,0-.78,0-.78-.61S46.66,26.9,47.2,26.88ZM52.41,35v3.81c0,.43.09,1-.53,1s-.6-.6-.6-1.06q0-3,0-6.08c0-1.61,0-1.61-1.66-1.61-1.28,0-2.55,0-3.82,0-.41,0-1,.06-1-.57s.55-.68,1-.69l5.36-.06c.93,0,1.27.43,1.25,1.32C52.39,32.39,52.41,33.71,52.41,35Z" transform="translate(-5.83 -4.25)"/>
    <path class="c" d="M21.63,22.89c2.82,0,5.64,0,8.47,0a7.76,7.76,0,0,1,1.07.06.58.58,0,0,1,.53.67c0,.36-.14.63-.52.68a11.55,11.55,0,0,1-1.31.1H13.17c-.16,0-.32,0-.48,0-.57,0-1.21-.06-1.19-.83s.68-.68,1.18-.69C15.66,22.88,18.64,22.89,21.63,22.89Z" transform="translate(-5.83 -4.25)"/>
    <path class="b" d="M21.58,49.42A9,9,0,0,1,17.47,49a.86.86,0,0,0-.89.1c-1,.71-1.78.4-2.39-.57-.47-.74-.81-.78-1,.15A6.1,6.1,0,0,1,12.63,50a.79.79,0,0,1-.9.45c-.39-.12-.41-.57-.32-.92.21-.81.43-1.61.7-2.4A13.45,13.45,0,0,0,12.68,44c0-.43.29-1,.73-1s.59.49.69.89c.23.88.4,1.78.65,2.65.36,1.28.84,1.4,1.76.46.56-.57,1-.56,1.38.17a1.48,1.48,0,0,0,1.34.81,16.3,16.3,0,0,0,3.56,0,6.14,6.14,0,0,1,1.42,0c.37,0,.71.17.73.64a.67.67,0,0,1-.74.75C23.33,49.45,22.45,49.42,21.58,49.42Z" transform="translate(-5.83 -4.25)"/>
    <path class="d" d="M21.66,28.06h8.45a4.58,4.58,0,0,1,.83,0,.74.74,0,0,1,.67.72.67.67,0,0,1-.62.62,6.34,6.34,0,0,1-1.07.06q-8.39,0-16.78,0c-.2,0-.4,0-.6,0-.44,0-.95-.1-.93-.67s.45-.76,1-.75C15.63,28.07,18.64,28.06,21.66,28.06Z" transform="translate(-5.83 -4.25)"/>
    <path class="e" d="M21.52,34.72H13.17a3.75,3.75,0,0,1-.95,0,.84.84,0,0,1-.66-.77.69.69,0,0,1,.76-.61H30.46c.54-.05,1.1.17,1.13.64s-.55.79-1.11.79Z" transform="translate(-5.83 -4.25)"/>
    <path class="e" d="M21.64,19.2H16.05c-.59,0-1.21,0-1.18-.8s.69-.63,1.19-.63H27.24c.51,0,1.11-.07,1.1.71s-.59.72-1.11.72Z" transform="translate(-5.83 -4.25)"/>
    <path class="f" d="M19.79,37.53c.8-.35,1.17-.06,1.36.66.27,1,.59,2,1,3.36.44-1.34.81-2.39,1.12-3.45.14-.49.36-.84.9-.69.7.19.19.66.1.94-.41,1.29-.89,2.55-1.31,3.83-.15.46-.34.73-.9.72s-.64-.35-.76-.74Z" transform="translate(-5.83 -4.25)"/>
    <path class="f" d="M18.45,38.21a1.94,1.94,0,1,0,.06,3.87c.33,0,.75-.32.84.26s-.46.52-.81.56c-2,.23-3.26-.78-3.33-2.61a2.78,2.78,0,0,1,3.23-2.93c.38,0,1-.14.95.55S18.83,38.28,18.45,38.21Z" transform="translate(-5.83 -4.25)"/>
    <path class="f" d="M27.43,38a.82.82,0,0,0-.95-.65c-.52,0-.66.28-.79.7-.38,1.29-.82,2.56-1.2,3.84-.09.3-.56.74.12.94.47.13.77-.13.83-.6.09-.69.46-.9,1.13-.88s1,.16,1.08.8.6.84,1.3.56C28.44,41.17,27.9,39.61,27.43,38Zm-.51,2.41c0,.11-.69.12-.74,0-.33-.62.19-1.14.36-1.73C26.71,39.3,27.21,39.81,26.92,40.44Z" transform="translate(-5.83 -4.25)"/>
  </g>
</svg>
