<svg xmlns="http://www.w3.org/2000/svg" width="50.27" height="46.18" viewBox="0 0 50.27 46.18">
  <defs>
    <style>
      .a {
        fill: #3e87c7;
      }
    </style>
  </defs>
  <g>
    <path class="a" d="M30.07,53.08H16.4a1.45,1.45,0,0,1-1.62-1.62V34a1.48,1.48,0,0,1,1.65-1.67H43.7A1.49,1.49,0,0,1,45.38,34v17.4a1.63,1.63,0,0,1-.57,1.39,1.69,1.69,0,0,1-1.07.29H30.07ZM32.2,33.35v4c0,.49-.15.64-.64.64h-3c-.48,0-.63-.15-.63-.63,0-1.21,0-2.42,0-3.62,0-.13,0-.25,0-.38H25.65v8.86h8.86V33.35Zm-9.88,0v4c0,.49-.14.63-.63.64h-3c-.53,0-.67-.14-.67-.68V33.73c0-.13,0-.25,0-.4h-1.6c-.56,0-.71.15-.71.72v7.78c0,.12,0,.25,0,.38h8.87V33.35Zm3.33,9.88v8.86H34.5V43.24H32.2v4c0,.51-.15.66-.66.66q-1.47,0-2.94,0c-.5,0-.65-.16-.65-.66V43.62c0-.13,0-.25,0-.39Zm-9.88,0c0,.14,0,.24,0,.35v7.88c0,.52.15.66.69.66h8.2V43.24H22.32v3.95c0,.54-.14.68-.67.68-1,0-1.94,0-2.91,0-.53,0-.67-.15-.67-.68V43.6c0-.12,0-.24,0-.38Zm19.76-9.87v8.86H44.4c0-.12,0-.21,0-.31V34c0-.09,0-.21,0-.27s-.26-.38-.41-.39c-.62,0-1.24,0-1.9,0v.42c0,1.18,0,2.37,0,3.55,0,.55-.14.69-.69.69H38.5c-.53,0-.68-.15-.68-.67V33.74c0-.12,0-.25,0-.39Zm6.55,9.88v.41c0,1.19,0,2.39,0,3.58,0,.5-.15.65-.66.65H38.5c-.53,0-.68-.15-.68-.67V43.62c0-.13,0-.25,0-.39H35.53v8.89h8.13c.62,0,.75-.13.75-.74V43.23Zm-23-10V37h2.22V33.27Zm9.87,0V37h2.22V33.27Zm12.11,0H38.84V37h2.23ZM21.31,46.86V43.25H19.08v3.61Zm19.75,0V43.25H38.83v3.62ZM29,46.86h2.23V43.25H29Z" transform="translate(-4.86 -6.91)"/>
    <path class="a" d="M32.64,25.71l-2.55-.42a1.09,1.09,0,0,0-.54,0,9.36,9.36,0,1,1-4.85-18,9.5,9.5,0,0,1,4,.22,1,1,0,0,0,.54,0,9.36,9.36,0,1,1,4.71,18c-.44.06-.89.09-1.34.13ZM17.83,16.56A8.36,8.36,0,1,0,26.11,8.2,8.37,8.37,0,0,0,17.83,16.56Zm13.46,7.93a8.34,8.34,0,0,0,7.49-13.92,8.19,8.19,0,0,0-8.21-2.35A9.48,9.48,0,0,1,31.29,24.49Z" transform="translate(-4.86 -6.91)"/>
    <path class="a" d="M10.3,30.2l.81-.58a1.2,1.2,0,0,1,1.39-.1A1.14,1.14,0,0,1,13,30.8l-1,4.5a1.09,1.09,0,0,1-1.26.94C9.15,36.11,7.6,36,6,35.79A1.1,1.1,0,0,1,5,35a1.13,1.13,0,0,1,.52-1.29l1.12-.82C6.43,32.42,6.2,32,6,31.61a12,12,0,0,1,4.08-15,2.47,2.47,0,0,1,2.89,4,7.76,7.76,0,0,0-3.09,4.08,7.35,7.35,0,0,0,.24,5.2,2.14,2.14,0,0,0,.1.22A.58.58,0,0,0,10.3,30.2ZM13,18.66a1.49,1.49,0,0,0-.82-1.36,1.39,1.39,0,0,0-1.57.14A11,11,0,0,0,7.65,32.55c.27.43.24.61-.17.92s-.91.65-1.35,1A1.07,1.07,0,0,0,6,34.7a1.59,1.59,0,0,0,.27.12,3,3,0,0,0,.42,0c1.31.13,2.62.25,3.92.39.3,0,.41-.07.48-.36.29-1.4.61-2.79.91-4.19a1.5,1.5,0,0,0,0-.36,2,2,0,0,0-.34.13l-1.07.77c-.42.31-.69.25-.94-.21a8.4,8.4,0,0,1,0-8.16,8.28,8.28,0,0,1,2.69-3A1.45,1.45,0,0,0,13,18.66Z" transform="translate(-4.86 -6.91)"/>
    <path class="a" d="M48.49,22.29c-.22.29-.44.55-.65.82a1.15,1.15,0,0,1-1.28.44,1.12,1.12,0,0,1-.8-1.13c-.08-1.51-.16-3-.25-4.54a1.16,1.16,0,0,1,1-1.3L51,15.81a1.15,1.15,0,0,1,1.14,1.94l-.81,1c.38.42.77.82,1.12,1.25a12,12,0,0,1,.19,15,2.68,2.68,0,0,1-2.08,1.25,2.38,2.38,0,0,1-2.31-1.36,2.31,2.31,0,0,1,.27-2.66A8,8,0,0,0,49.85,30a7.41,7.41,0,0,0-1.1-7.37C48.68,22.49,48.59,22.41,48.49,22.29Zm1.79,13a1.49,1.49,0,0,0,1.29-.55,4.91,4.91,0,0,0,.39-.51,11,11,0,0,0-1.52-14.84c-.42-.38-.44-.54-.09-1s.67-.83,1-1.26a1.34,1.34,0,0,0,.12-.3l-.33,0-.14,0c-1.35.23-2.7.48-4.05.69-.35.06-.51.18-.45.55a8.09,8.09,0,0,1,.06.85c.06,1.15.12,2.29.19,3.44a.77.77,0,0,0,.11.27.87.87,0,0,0,.25-.15L48,21.31c.28-.34.56-.37.87,0a8.4,8.4,0,0,1,2.38,7.07,8.55,8.55,0,0,1-2,4.51,1.36,1.36,0,0,0-.19,1.56A1.45,1.45,0,0,0,50.28,35.27Z" transform="translate(-4.86 -6.91)"/>
    <path class="a" d="M25.45,11.66c0-.56-.05-1-.06-1.5s.16-.63.48-.65.51.19.54.6.05,1,.07,1.44h.61a2.11,2.11,0,0,1,2.47,2.18c0,.21,0,.42,0,.64a.51.51,0,0,1-.5.57c-.29,0-.49-.21-.51-.56s0-.54-.05-.81a1,1,0,0,0-1.08-1c-.94,0-1.87.07-2.8.12a1,1,0,0,0-1,1.12c0,.42,0,.83.05,1.24a1.07,1.07,0,0,0,1.24,1.06c.85,0,1.7-.09,2.55-.11a2.05,2.05,0,0,1,2.3,2.06c0,.41.05.82.05,1.24a2.06,2.06,0,0,1-2,2.16l-.79,0c0,.5,0,1,0,1.42s-.14.67-.47.69S26,23.42,26,23s0-.91,0-1.4c-.34,0-.6,0-.85,0a2.09,2.09,0,0,1-2.27-1.87,8.19,8.19,0,0,1,0-1,.49.49,0,0,1,.48-.55c.3,0,.51.18.54.53s0,.49,0,.74A1,1,0,0,0,25,20.55c.87,0,1.75-.06,2.62-.11a1.07,1.07,0,0,0,1.12-1.22c0-.38,0-.76-.05-1.14A1,1,0,0,0,27.6,17c-.88,0-1.77.08-2.66.12A2.11,2.11,0,0,1,22.62,15a13.46,13.46,0,0,1,0-1.42,2,2,0,0,1,2-1.89C24.85,11.65,25.12,11.66,25.45,11.66Z" transform="translate(-4.86 -6.91)"/>
  </g>
</svg>
