<svg xmlns="http://www.w3.org/2000/svg" width="52.12" height="50.8" viewBox="0 0 52.12 50.8">
  <defs>
    <style>
      .a {
        fill: #3e87c7;
      }
    </style>
  </defs>
  <g>
    <path class="a" d="M10.67,12.59a8.72,8.72,0,0,1-.27-.88c0-.15-.05-.4,0-.46a.64.64,0,0,1,.51-.05c1.09.39,2.18.81,3.27,1.22.39.14.78.28,1.17.44s.48.33.22.71L14,15.79,13.9,16l11.47,8c.82-.63,1.61-1.26,2.42-1.85a.83.83,0,0,1,.57-.17c.09,0,.17.33.17.51q0,5.25,0,10.5a.58.58,0,0,0,.46.67L40.87,37.8a1.66,1.66,0,0,1,1.38,1.94v9.59l1-.53c.4-.19.62-.06.61.38s0,.63,0,1c.36.06.71.14,1.06.17a8.47,8.47,0,0,0,8.34-4.21c.13-.21.26-.49.54-.32a.69.69,0,0,1,.16.58,8.82,8.82,0,0,1-9.19,7.78c-.52,0-1-.06-1.6-.09a7.55,7.55,0,0,1-.13.83c0,.18-.15.43-.28.47s-.36-.1-.49-.23c-.49-.5-1-1-1.44-1.55a1.19,1.19,0,0,0-1-.44c-4.29,0-8.58,0-12.86,0H14.59a.68.68,0,0,1-.77-.55q-2.69-7.47-5.41-14.91a.71.71,0,0,1,.29-.95C9.82,36,10.91,35.09,12,34.25a.66.66,0,0,0,.28-.58c0-5.28,0-10.56,0-15.84a3.79,3.79,0,0,0-.46-1.32c0-.05-.23-.07-.33,0A8.53,8.53,0,0,0,5.39,23c-.1.41-.11.85-.2,1.27a.76.76,0,0,1-.29.5c-.29.1-.38-.18-.45-.4a8.73,8.73,0,0,1,3-10.06,25.54,25.54,0,0,1,2.82-1.54A3.34,3.34,0,0,1,10.67,12.59ZM27.81,44V23l-.32.23q-9.07,7-18.16,13.92a.45.45,0,0,0-.16.61c1,2.65,1.92,5.3,2.88,7.95q1.15,3.18,2.32,6.36c.05.15.19.37.31.39.48,0,1,0,1.49,0v-.56q0-6,0-12c0-.14,0-.29,0-.43a1.13,1.13,0,0,1,1-1,1.09,1.09,0,0,1,1.17.76,2.25,2.25,0,0,1,.07.64q0,6,0,12.09v.52h3.47V45c0-.77.27-1,1.05-1Zm.75,0h2.59c.86,0,1.09.22,1.09,1.06v7.44h7.49l-.63-.68c-.39-.43-.37-.57.13-.84.66-.36,1.31-.72,2-1.06a.6.6,0,0,0,.37-.63c0-3.2,0-6.41,0-9.62,0-.74-.15-.95-.86-1.2L29,34.37l-.4-.11Zm-15-27.42A1.8,1.8,0,0,0,13,18c0,5,0,10,0,14.93v.61L24.8,24.44ZM29.07,52.48h2.46v-7.8l-.42,0c-2.69,0-5.38,0-8.07,0-.39,0-.47.12-.47.49,0,2.29,0,4.57,0,6.86v.49h2.5c0-.54,0-1.06,0-1.57s.13-.53.5-.52h3c.35,0,.5.15.49.5C29.06,51.41,29.07,51.93,29.07,52.48Zm14-2.8-3.35,1.81,2.62,2.79c0-.2,0-.3.06-.39.1-.59.19-.65.77-.55l.64.09a8.47,8.47,0,0,0,7.2-2.49,8.1,8.1,0,0,0,1.79-3l-.34.3A9.2,9.2,0,0,1,44.29,51C43.19,50.83,43.19,50.84,43.11,49.68ZM11.26,12.07c.05.18.07.27.1.36.18.6.14.65-.46.86a13.18,13.18,0,0,0-1.4.56,8,8,0,0,0-4.84,7.2c0,.44,0,.88,0,1.32.12-.05.14-.11.15-.16a9.21,9.21,0,0,1,6.47-6.43c.81-.25.81-.25,1.2.52a2.12,2.12,0,0,0,.13.2l2.18-3.1Zm6.45,40.42c0-.15,0-.25,0-.35V39.79c0-.1,0-.23,0-.29s-.28-.34-.42-.33-.3.22-.4.37,0,.22,0,.33V52.49Zm8.08,0h2.57V51.12H25.77c0,.37,0,.7,0,1C25.77,52.24,25.78,52.34,25.79,52.46Z" transform="translate(-3.94 -4.6)"/>
    <path class="a" d="M44.61,13.67c0,.29-.09.71-.17,1.12a.73.73,0,0,0,.27.76c.31.27.57.61.9.86a1.11,1.11,0,0,0,.67.25c.41,0,.82-.12,1.24-.16a1.1,1.1,0,0,1,1.2.72c.16.35.31.71.45,1.07a1,1,0,0,1-.39,1.37,2.24,2.24,0,0,0-1.26,2.54,1,1,0,0,0,.44.85,9.83,9.83,0,0,1,.83.61,1.16,1.16,0,0,1,.41,1.39c-.14.36-.29.72-.44,1.08a1.14,1.14,0,0,1-1.27.74c-.39,0-.77-.11-1.15-.17a.71.71,0,0,0-.72.28,6.43,6.43,0,0,1-.82.83.74.74,0,0,0-.29.79c.06.31.11.62.15.94A1.19,1.19,0,0,1,43.82,31c-.32.14-.63.29-1,.4a1.15,1.15,0,0,1-1.39-.4c-.24-.31-.46-.66-.73-1a1,1,0,0,0-.58-.27c-.33,0-.67,0-1,0a1.13,1.13,0,0,0-1.2.61c-1,1.35-1.09,1.37-2.63.74-1-.4-1.2-.76-1-1.8a1.8,1.8,0,0,0-.58-1.89,1.77,1.77,0,0,0-1.88-.6,1.88,1.88,0,0,1-1,0,2.44,2.44,0,0,1-1.15-2.72,3.1,3.1,0,0,1,.94-.86A1.13,1.13,0,0,0,31.36,22s0-.06,0-.08a1.74,1.74,0,0,0-1.05-2,1.21,1.21,0,0,1-.51-1.74c.13-.31.24-.62.38-.92a1.14,1.14,0,0,1,1.23-.67,11.35,11.35,0,0,1,1.15.16.69.69,0,0,0,.72-.26,8.63,8.63,0,0,1,.85-.86.72.72,0,0,0,.27-.75c0-.33-.11-.66-.15-1a1.21,1.21,0,0,1,.82-1.48c.31-.13.63-.27,1-.39a1.15,1.15,0,0,1,1.39.38c.26.31.46.67.74.95a1.14,1.14,0,0,0,.66.29,6.42,6.42,0,0,0,1.24,0,1.14,1.14,0,0,0,.62-.28,9,9,0,0,0,.7-.93A1.17,1.17,0,0,1,42.86,12c.35.13.69.27,1,.43A1.16,1.16,0,0,1,44.61,13.67Zm-9.45,1.54a3.83,3.83,0,0,1-.44.79,14.41,14.41,0,0,1-1,1.05,1.23,1.23,0,0,1-1.13.39l-.68-.11c-.92-.15-.94-.14-1.28.7-.06.16-.12.33-.19.48a.53.53,0,0,0,.19.75c.3.2.58.44.87.64a1.3,1.3,0,0,1,.6,1.26,5.07,5.07,0,0,0,0,1,1.55,1.55,0,0,1-.73,1.54c-1.3.95-1.17.61-.53,2.16a.54.54,0,0,0,.66.34c.37-.06.74-.1,1.11-.17a1.22,1.22,0,0,1,1.2.42,10.7,10.7,0,0,0,.82.83,1.48,1.48,0,0,1,.53,1.53c-.24,1.6-.31,1.31,1,1.87a.2.2,0,0,0,.08,0,.54.54,0,0,0,.77-.22c.22-.32.46-.63.69-.94a1.2,1.2,0,0,1,1-.5,6,6,0,0,0,1.12,0,1.59,1.59,0,0,1,1.61.75c.91,1.24.6,1.12,2.1.51a.55.55,0,0,0,.38-.67c-.06-.4-.13-.8-.18-1.2a1.22,1.22,0,0,1,.43-1.12,5.46,5.46,0,0,0,.77-.75,1.55,1.55,0,0,1,1.67-.6c1.44.23,1.21.38,1.8-1a.66.66,0,0,0-.26-.91c-1.48-1.11-1.32-.82-1.38-2.64a2,2,0,0,1,.93-1.91c1.06-.71.91-.63.49-1.65-.05-.12-.1-.24-.14-.36a.5.5,0,0,0-.58-.34l-1.2.17a1.25,1.25,0,0,1-1.23-.46,4.52,4.52,0,0,0-.72-.73,1.56,1.56,0,0,1-.61-1.63c.22-1.51.42-1.24-1.09-1.87l0,0a.54.54,0,0,0-.72.21c-.19.27-.4.52-.58.8a1.39,1.39,0,0,1-1.44.66,2.75,2.75,0,0,0-.81,0,1.56,1.56,0,0,1-1.65-.75c-.91-1.25-.6-1.13-2.1-.53a.57.57,0,0,0-.39.71C35,14.19,35.07,14.61,35.16,15.21Z" transform="translate(-3.94 -4.6)"/>
    <path class="a" d="M49.87,44a6.32,6.32,0,1,1,6.19-6.43A6.32,6.32,0,0,1,49.87,44Zm-.1-.71a5.62,5.62,0,1,0-5.67-5.45A5.63,5.63,0,0,0,49.77,43.3Z" transform="translate(-3.94 -4.6)"/>
    <path class="a" d="M24.28,4.6a6.33,6.33,0,1,1-6.35,6.33A6.34,6.34,0,0,1,24.28,4.6Zm0,11.93a5.62,5.62,0,1,0-5.62-5.64A5.62,5.62,0,0,0,24.25,16.53Z" transform="translate(-3.94 -4.6)"/>
    <path class="a" d="M24.13,38.84c0,.26,0,.52,0,.78a1.1,1.1,0,0,1-1,1.06,1,1,0,0,1-1.16-.8,10.59,10.59,0,0,1,0-2.18,1,1,0,0,1,1.14-.78,1.1,1.1,0,0,1,1,1C24.14,38.24,24.13,38.54,24.13,38.84Zm-.68,0h0a3.29,3.29,0,0,0,0-.77c-.05-.17-.24-.41-.38-.42a.55.55,0,0,0-.44.34,8.88,8.88,0,0,0,0,1.63A.57.57,0,0,0,23,40c.15,0,.34-.24.39-.41A2.54,2.54,0,0,0,23.45,38.83Z" transform="translate(-3.94 -4.6)"/>
    <path class="a" d="M36.4,45c0,.3,0,.61,0,.91a1.09,1.09,0,0,1-2.17-.07q0-.84,0-1.68a1.09,1.09,0,0,1,2.17-.06,9,9,0,0,1,0,.9Zm-1.5,0a2.82,2.82,0,0,0,0,.77c0,.17.24.41.38.41a.57.57,0,0,0,.43-.36,8.45,8.45,0,0,0,0-1.59c0-.15-.29-.28-.45-.41-.13.15-.31.28-.36.45A3,3,0,0,0,34.9,45Z" transform="translate(-3.94 -4.6)"/>
    <path class="a" d="M15,24.13c0-.28,0-.57,0-.86a1.09,1.09,0,0,1,2.17,0,17.42,17.42,0,0,1,0,1.77,1.09,1.09,0,0,1-2.16,0c0-.31,0-.63,0-.95Zm1.51,0h0a2.75,2.75,0,0,0,0-.76c-.05-.16-.26-.38-.4-.38a.59.59,0,0,0-.41.37,7.92,7.92,0,0,0,0,1.54c0,.16.28.29.43.43.13-.16.33-.29.39-.47A3,3,0,0,0,16.47,24.15Z" transform="translate(-3.94 -4.6)"/>
    <path class="a" d="M43.58,21.71a4.13,4.13,0,1,1-4.1-4.13A4.1,4.1,0,0,1,43.58,21.71Zm-7.55,0a3.43,3.43,0,1,0,3.42-3.44A3.42,3.42,0,0,0,36,21.72Z" transform="translate(-3.94 -4.6)"/>
    <path class="a" d="M49.32,34.64c.11-.3-.09-.79.42-.78s.28.48.41.77c.36.06.74.12,1.12.2s.5.16.41.49-.3.25-.56.23a12.37,12.37,0,0,0-1.92-.11.74.74,0,0,0-.81.73c0,.46.15.71.71.87s1.13.23,1.68.38a1.82,1.82,0,0,1,1.24.79,1.57,1.57,0,0,1-.73,2.22,8.26,8.26,0,0,1-1.16.36c-.11.25.1.74-.4.75s-.33-.45-.41-.77l-1.17-.16c-.26,0-.55-.12-.47-.47s.32-.27.58-.26c.8,0,1.6,0,2.4,0a.85.85,0,0,0,.78-.59.78.78,0,0,0-.52-1.07c-.49-.16-1-.24-1.5-.37a5.9,5.9,0,0,1-.75-.21,1.38,1.38,0,0,1-1-1.43,1.47,1.47,0,0,1,1.14-1.45Z" transform="translate(-3.94 -4.6)"/>
    <path class="a" d="M24.68,14c-.11.29.08.78-.42.78S24,14.3,23.87,14l-1.21-.17c-.25,0-.51-.12-.45-.45s.32-.28.58-.27c.8,0,1.6.06,2.4,0a1.13,1.13,0,0,0,.7-.44.76.76,0,0,0-.31-1.16c-.41-.16-.86-.24-1.28-.36a11.87,11.87,0,0,1-1.24-.35,1.3,1.3,0,0,1-.86-1.4,1.42,1.42,0,0,1,1-1.35,7.15,7.15,0,0,1,.7-.19c.13-.28-.13-.78.4-.78s.32.45.41.76c.35.07.71.12,1.07.2s.55.14.46.49-.34.25-.6.22a12.61,12.61,0,0,0-1.84-.1c-.56,0-.82.31-.85.74s.15.72.72.87,1.15.23,1.72.39c1,.26,1.4.77,1.38,1.61a1.59,1.59,0,0,1-1.31,1.56Z" transform="translate(-3.94 -4.6)"/>
  </g>
</svg>
