<svg id="Layer_1" data-name="Layer 1" xmlns="http://www.w3.org/2000/svg" viewBox="0 0 428.66 425.7"><defs><style>.cls-1{fill:#2f89db;}.cls-2{fill:#2f8adb;}</style></defs><path class="cls-1" d="M320.54,161.36q86.85,0,173.7,0c25.86,0,40.42,14.11,40.45,39.73q.13,173.06,0,346.11c0,25.65-14.59,39.71-40.44,39.76q-20,0-39.93,0c-24.93-.09-39.09-14-39.12-38.69q-.12-112.39,0-224.77c0-30.43-13.06-43.33-43.85-43.33q-111.3,0-222.61,0-42.15,0-42.33-42.29c-.05-12.6-.18-25.2,0-37.79.41-24.55,14.85-38.7,39.44-38.72Q233.19,161.31,320.54,161.36Z" transform="translate(-106.1 -161.35)"/><path class="cls-1" d="M346.05,468.39q0,39.28,0,78.58c-.06,26.5-13.45,39.94-39.74,40-14.64,0-29.29.19-43.93-.06-20-.33-34.61-14.6-35.1-34.51-.38-15.25,0-30.51-.15-45.76-.29-24.49-14.87-39-39.23-39.13-14-.08-28,0-41.93,0-23.92-.12-38.79-14.2-39.5-38-.44-14.57-.53-29.19,0-43.76.91-23.39,15.6-37.23,39.12-37.28q80.87-.13,161.74,0c24.08,0,38.53,14.42,38.66,38.37C346.16,414,346.05,441.2,346.05,468.39Z" transform="translate(-106.1 -161.35)"/><path class="cls-2" d="M133.71,534.65c20.73,0,26,5.43,26,26.77,0,20.61-5.49,25.6-28.06,25.56-19.6,0-25.32-6.07-25.26-26.68C106.41,540.24,112.39,534.64,133.71,534.65Z" transform="translate(-106.1 -161.35)"/></svg>